<svg width="22" height="22" viewBox="0 0 22 22" fill="none" xmlns="http://www.w3.org/2000/svg">
<path d="M0.402581 0.40317C0.660432 0.145397 1.01011 0.000588352 1.37471 0.000588352C1.73931 0.000588352 2.08898 0.145397 2.34683 0.40317L10.9997 9.05604L19.6526 0.40317C19.7794 0.271843 19.9311 0.167093 20.0989 0.0950303C20.2667 0.0229679 20.4471 -0.0149631 20.6297 -0.0165496C20.8122 -0.0181361 20.9933 0.0166537 21.1623 0.0857899C21.3313 0.154926 21.4848 0.257024 21.6139 0.386127C21.743 0.515229 21.8451 0.66875 21.9142 0.837733C21.9833 1.00672 22.0181 1.18777 22.0166 1.37035C22.015 1.55292 21.977 1.73335 21.905 1.9011C21.8329 2.06886 21.7282 2.22058 21.5968 2.34742L12.944 11.0003L21.5968 19.6532C21.8473 19.9125 21.9859 20.2598 21.9828 20.6203C21.9796 20.9809 21.835 21.3257 21.5801 21.5807C21.3251 21.8356 20.9803 21.9802 20.6198 21.9833C20.2592 21.9865 19.9119 21.8479 19.6526 21.5974L10.9997 12.9445L2.34683 21.5974C2.0875 21.8479 1.74018 21.9865 1.37965 21.9833C1.01913 21.9802 0.674267 21.8356 0.419331 21.5807C0.164395 21.3257 0.0197874 20.9809 0.0166546 20.6203C0.0135217 20.2598 0.152114 19.9125 0.402581 19.6532L9.05546 11.0003L0.402581 2.34742C0.144809 2.08957 0 1.7399 0 1.37529C0 1.01069 0.144809 0.66102 0.402581 0.40317V0.40317Z" fill="currentColor"/>
</svg>
