<svg width="15" height="18" viewBox="0 0 15 18" fill="none" xmlns="http://www.w3.org/2000/svg">
<path d="M3.21559 6.20274L3.2156 6.20273C4.07284 5.56814 5.86745 4.17263 7.44174 2.94059C8.2302 2.32354 8.96542 1.74591 9.5035 1.32255C9.52706 1.30402 9.55024 1.28578 9.57303 1.26784V7.42209V7.92209H10.073H13.7203V17.2627H2.07518C1.63496 17.2627 1.27963 16.9043 1.27963 16.4778L1.27983 8.93078V8.9307C1.27983 8.45751 1.30258 8.17008 1.50863 7.82185C1.73302 7.44263 2.19923 6.9551 3.21559 6.20274Z" fill="#3E9CDC" stroke="black"/>
<path d="M10.3529 11.9993L10.573 11.8506V11.585V7.922H11.5874V13.2606L5.65055 15.1761L10.3529 11.9993Z" fill="black" fill-opacity="0.2" stroke="black"/>
<path d="M6.96531 7.53783C6.80271 7.73303 6.7233 7.93658 6.70666 8.09188C6.68946 8.25245 6.73899 8.30464 6.75052 8.31423L6.75056 8.31427C6.76337 8.32493 6.82757 8.36499 6.98752 8.31937C7.14349 8.27487 7.33585 8.15835 7.50284 7.96091L7.50294 7.96079C7.67022 7.76314 7.75162 7.55608 7.76847 7.39861C7.78564 7.23822 7.73624 7.18584 7.72455 7.17608L6.96531 7.53783ZM6.96531 7.53783L6.97206 7.52986C7.13931 7.33224 7.33178 7.21562 7.48777 7.17108C7.64753 7.12546 7.71165 7.16538 7.72451 7.17604L6.96531 7.53783Z" fill="#231F20" stroke="black"/>
</svg>
