<svg width="126" height="26" viewBox="0 0 126 26" fill="none" xmlns="http://www.w3.org/2000/svg"><path d="M60.328 2.94613C60.328 2.97559 60.328 3.0345 60.328 3.06395C60.328 3.09341 60.328 3.12287 60.328 3.15232C60.328 3.18178 60.328 3.18178 60.2986 3.21124C60.2986 3.24069 60.2691 3.24069 60.2396 3.27015C60.2102 3.29961 60.1513 3.32906 60.0924 3.38797C60.0334 3.44689 59.9451 3.47634 59.8567 3.5058C59.7683 3.53526 59.68 3.56471 59.5621 3.59417C59.4443 3.62362 59.3559 3.62363 59.2381 3.62363C59.0025 3.62363 58.7963 3.59417 58.6195 3.5058C58.4428 3.41743 58.2955 3.32906 58.1777 3.18178C58.0599 3.0345 57.9715 2.85776 57.9126 2.65157C57.8537 2.44537 57.8242 2.18027 57.8242 1.91516C57.8242 1.59114 57.8537 1.32603 57.942 1.09038C58.0304 0.854731 58.1188 0.677994 58.2661 0.530712C58.4133 0.38343 58.5606 0.265605 58.7374 0.206692C58.9141 0.14778 59.1203 0.0888672 59.3265 0.0888672C59.4149 0.0888672 59.5327 0.0888667 59.6211 0.118323C59.7094 0.147779 59.7978 0.177236 59.8862 0.206692C59.9745 0.236149 60.0334 0.265605 60.0924 0.324518C60.1513 0.353974 60.2102 0.412886 60.2396 0.442343C60.2691 0.471799 60.2986 0.501256 60.2986 0.501256C60.2986 0.530712 60.328 0.530712 60.328 0.560168C60.328 0.589624 60.328 0.619081 60.328 0.648537C60.328 0.677993 60.328 0.70745 60.328 0.766362C60.328 0.854731 60.328 0.913644 60.2986 0.972557C60.2691 1.00201 60.2396 1.03147 60.2102 1.03147C60.1807 1.03147 60.1218 1.00201 60.0924 0.972557C60.0334 0.9431 59.9745 0.884187 59.9156 0.854731C59.8567 0.795818 59.7683 0.766362 59.6505 0.736906C59.5621 0.707449 59.4149 0.677994 59.297 0.677994C59.0025 0.677994 58.7963 0.795818 58.649 1.00201C58.5017 1.20821 58.4133 1.53223 58.4133 1.94462C58.4133 2.15081 58.4428 2.32755 58.4723 2.50429C58.5017 2.65157 58.5606 2.79885 58.649 2.88722C58.7374 3.00504 58.8257 3.06396 58.9436 3.12287C59.0614 3.18178 59.1792 3.21124 59.3265 3.21124C59.4738 3.21124 59.5916 3.18178 59.68 3.15232C59.7683 3.12287 59.8862 3.06395 59.9451 3.00504C60.0334 2.94613 60.0924 2.91667 60.1218 2.85776C60.1807 2.8283 60.2102 2.79885 60.2396 2.79885C60.2691 2.79885 60.2691 2.79885 60.2691 2.79885C60.2691 2.79885 60.2986 2.8283 60.2986 2.85776C60.2986 2.88722 60.2985 2.91667 60.328 2.94613C60.328 2.88722 60.328 2.85776 60.328 2.94613Z" fill="black"/><path d="M63.8626 1.67674C63.8626 1.76511 63.8332 1.82402 63.8037 1.88293C63.7448 1.91239 63.7153 1.94184 63.6564 1.94184H61.5356C61.5356 2.11858 61.565 2.29532 61.5945 2.41315C61.6239 2.56043 61.6829 2.67825 61.7712 2.79608C61.8596 2.9139 61.9774 2.97282 62.0952 3.03173C62.2425 3.09064 62.3898 3.1201 62.596 3.1201C62.7433 3.1201 62.8906 3.1201 63.0084 3.09064C63.1262 3.06119 63.244 3.03173 63.3324 3.00227C63.4208 2.97282 63.4797 2.94336 63.5386 2.9139C63.5975 2.88445 63.627 2.88445 63.6564 2.88445C63.6859 2.88445 63.6859 2.88445 63.7153 2.88445L63.7448 2.9139C63.7448 2.94336 63.7448 2.94336 63.7743 2.97282C63.7743 3.00227 63.7743 3.03173 63.7743 3.09064C63.7743 3.1201 63.7743 3.14955 63.7743 3.17901C63.7743 3.20847 63.7743 3.20847 63.7743 3.23792C63.7743 3.26738 63.7743 3.26738 63.7448 3.29683C63.7153 3.32629 63.7153 3.32629 63.7153 3.32629C63.7153 3.32629 63.6564 3.35575 63.5975 3.3852C63.5386 3.41466 63.4502 3.44412 63.3324 3.47357C63.2146 3.50303 63.0968 3.53249 62.9789 3.56194C62.8317 3.5914 62.6844 3.5914 62.5371 3.5914C62.272 3.5914 62.0363 3.56194 61.8301 3.47357C61.6239 3.3852 61.4472 3.29683 61.3294 3.14955C61.1821 3.00227 61.0937 2.82553 61.0348 2.58988C60.9759 2.38369 60.917 2.11858 60.917 1.82402C60.917 1.55891 60.9465 1.29381 61.0348 1.08761C61.0937 0.851961 61.2116 0.675223 61.3588 0.527942C61.5061 0.38066 61.6534 0.262835 61.8596 0.174466C62.0658 0.0860968 62.272 0.0566406 62.5076 0.0566406C62.7727 0.0566406 62.9789 0.0860968 63.1557 0.174466C63.3324 0.262835 63.4797 0.351204 63.5975 0.498485C63.7153 0.645767 63.8037 0.793049 63.8626 0.969786C63.9215 1.14652 63.951 1.35272 63.951 1.55891V1.67674H63.8626ZM63.2735 1.5C63.2735 1.17598 63.2146 0.94033 63.0673 0.763592C62.92 0.586854 62.7138 0.498485 62.4193 0.498485C62.272 0.498485 62.1542 0.527941 62.0363 0.586854C61.9185 0.645767 61.8301 0.70468 61.7712 0.793049C61.6829 0.881417 61.6239 0.999243 61.5945 1.11707C61.565 1.23489 61.5356 1.35272 61.5356 1.5H63.2735Z" fill="black"/><path d="M67.7507 1.76624C67.7507 2.06081 67.7213 2.29646 67.6624 2.53211C67.6034 2.76776 67.5151 2.9445 67.3972 3.09178C67.2794 3.23906 67.1321 3.35688 66.9554 3.44525C66.7787 3.53362 66.5725 3.56308 66.3663 3.56308C66.2779 3.56308 66.1895 3.56308 66.1012 3.53362C66.0128 3.50417 65.9539 3.47471 65.8655 3.44525C65.7771 3.4158 65.7182 3.35688 65.6299 3.29797C65.5415 3.23906 65.4826 3.15069 65.3942 3.09178V4.71188C65.3942 4.74133 65.3942 4.74133 65.3942 4.77079C65.3942 4.80024 65.3648 4.80024 65.3353 4.80024C65.3058 4.80024 65.2764 4.8297 65.2469 4.8297C65.2175 4.8297 65.1586 4.8297 65.0996 4.8297C65.0407 4.8297 64.9818 4.8297 64.9524 4.8297C64.9229 4.8297 64.8935 4.8297 64.864 4.80024C64.8345 4.80024 64.8345 4.77079 64.8051 4.77079C64.7756 4.77079 64.8051 4.74133 64.8051 4.71188V0.205058C64.8051 0.175602 64.8051 0.175602 64.8051 0.146145L64.8345 0.116689C64.864 0.116689 64.8935 0.0872332 64.9229 0.0872332C64.9524 0.0872332 65.0113 0.0872332 65.0407 0.0872332C65.0996 0.0872332 65.1291 0.0872332 65.1586 0.0872332C65.188 0.0872332 65.2175 0.0872327 65.2469 0.116689C65.2764 0.116689 65.2764 0.146145 65.3058 0.146145C65.3058 0.146145 65.3058 0.175602 65.3058 0.205058V0.617447C65.3942 0.529078 65.512 0.440709 65.6004 0.35234C65.6888 0.263971 65.7771 0.205058 65.8655 0.175602C65.9539 0.116689 66.0423 0.0872331 66.1601 0.0577767C66.2484 0.0283204 66.3663 0.0283203 66.4546 0.0283203C66.6903 0.0283203 66.8965 0.0872329 67.0438 0.175602C67.2205 0.263971 67.3383 0.381796 67.4562 0.558534C67.574 0.705815 67.6329 0.91201 67.6918 1.1182C67.7213 1.29494 67.7507 1.53059 67.7507 1.76624ZM67.1321 1.82516C67.1321 1.64842 67.1321 1.50114 67.1027 1.35385C67.0732 1.20657 67.0438 1.05929 66.9849 0.941466C66.9259 0.823641 66.8376 0.735272 66.7492 0.646903C66.6314 0.58799 66.5136 0.529078 66.3663 0.529078C66.2779 0.529078 66.219 0.529077 66.1306 0.558534C66.0422 0.58799 65.9833 0.617447 65.895 0.67636C65.8066 0.735272 65.7477 0.794184 65.6593 0.882553C65.571 0.970922 65.4826 1.05929 65.3942 1.17712V2.47319C65.5709 2.67939 65.7182 2.82667 65.8655 2.9445C66.0128 3.06232 66.1601 3.09178 66.3368 3.09178C66.4841 3.09178 66.6019 3.06232 66.7197 2.97395C66.8376 2.91504 66.9259 2.79721 66.9849 2.67939C67.0438 2.56156 67.1027 2.41428 67.1321 2.267C67.1321 2.11972 67.1321 1.97244 67.1321 1.82516Z" fill="black"/><path d="M71.2857 2.50265C71.2857 2.67939 71.2562 2.82667 71.1973 2.9445C71.1384 3.09178 71.05 3.18015 70.9027 3.26852C70.7849 3.35688 70.6082 3.4158 70.4314 3.47471C70.2547 3.53362 70.0191 3.53362 69.7834 3.53362C69.695 3.53362 69.6361 3.53362 69.5478 3.53362C69.4594 3.53362 69.4005 3.53362 69.3416 3.53362C69.2826 3.53362 69.1943 3.53362 69.1354 3.53362C69.0765 3.53362 68.9881 3.53362 68.9292 3.50417C68.8408 3.50417 68.7524 3.47471 68.723 3.4158C68.6641 3.35688 68.6641 3.29797 68.6641 3.18015V0.381796C68.6641 0.293427 68.6935 0.205058 68.723 0.146145C68.7819 0.0872328 68.8408 0.0577767 68.9292 0.0577767C68.9881 0.0577767 69.047 0.0577766 69.1354 0.0283203C69.1943 0.0283203 69.2826 0.0283203 69.3416 0.0283203C69.4299 0.0283203 69.4888 0.0283203 69.5772 0.0283203C69.6656 0.0283203 69.7245 0.0283203 69.8129 0.0283203C70.0485 0.0283203 70.2547 0.0577769 70.4314 0.0872332C70.6082 0.116689 70.7555 0.175602 70.8438 0.263971C70.9617 0.35234 71.05 0.440709 71.0795 0.529078C71.1384 0.646903 71.1678 0.764728 71.1678 0.91201C71.1678 1.08875 71.1089 1.23603 71.0206 1.38331C70.9322 1.50114 70.7849 1.61896 70.5787 1.64842C70.8144 1.70733 70.9911 1.7957 71.1089 1.94298C71.2268 2.09026 71.2857 2.267 71.2857 2.50265ZM70.5787 1.00038C70.5787 0.91201 70.5787 0.853097 70.5493 0.794185C70.5198 0.735272 70.4609 0.676359 70.402 0.646903C70.3431 0.617447 70.2547 0.558534 70.1369 0.558534C70.0191 0.529077 69.9012 0.529078 69.7539 0.529078C69.6361 0.529078 69.5478 0.529078 69.4594 0.529078C69.371 0.529078 69.2826 0.529077 69.2237 0.558534V1.56005H69.8423C70.078 1.56005 70.2842 1.50114 70.402 1.41277C70.5198 1.29494 70.5787 1.17712 70.5787 1.00038ZM70.6965 2.50265C70.6965 2.41428 70.6671 2.32591 70.6376 2.23754C70.6082 2.17863 70.5493 2.09026 70.4904 2.06081C70.4314 2.00189 70.3136 1.97244 70.1958 1.94298C70.078 1.91352 69.9601 1.91352 69.7834 1.91352H69.1943V3.06232C69.2532 3.06232 69.2826 3.06232 69.3416 3.09178C69.4005 3.09178 69.4299 3.09178 69.4888 3.09178C69.5478 3.09178 69.5772 3.09178 69.6361 3.09178C69.695 3.09178 69.7245 3.09178 69.7834 3.09178C69.9307 3.09178 70.078 3.09178 70.1958 3.06232C70.3136 3.03286 70.402 3.00341 70.4609 2.9445C70.5198 2.88558 70.5787 2.82667 70.6082 2.7383C70.6671 2.67939 70.6965 2.59102 70.6965 2.50265Z" fill="black"/><path d="M75.0566 3.4158C75.0566 3.44525 75.0566 3.44525 75.0566 3.47471C75.0566 3.50417 75.0272 3.50417 74.9977 3.50417C74.9683 3.50417 74.9388 3.53362 74.9094 3.53362C74.8799 3.53362 74.821 3.53362 74.7621 3.53362C74.7032 3.53362 74.6443 3.53362 74.6148 3.53362C74.5853 3.53362 74.5559 3.53362 74.5264 3.50417C74.497 3.50417 74.497 3.47471 74.4675 3.47471C74.4381 3.47471 74.4675 3.44525 74.4675 3.4158V1.56005C74.4675 1.47168 74.4675 1.38331 74.4675 1.26549C74.4675 1.17712 74.4675 1.05929 74.497 0.970923C74.4381 1.05929 74.3792 1.14766 74.3202 1.26549C74.2613 1.35385 74.2024 1.44222 74.114 1.53059L72.7296 3.4158C72.7001 3.44525 72.7001 3.44525 72.6707 3.47471C72.6412 3.50417 72.6412 3.50417 72.6118 3.50417C72.5823 3.50417 72.5529 3.50417 72.5234 3.53362C72.4939 3.53362 72.4645 3.53362 72.4056 3.53362C72.3467 3.53362 72.3172 3.53362 72.2877 3.53362C72.2583 3.53362 72.2288 3.53362 72.1994 3.50417C72.1699 3.50417 72.1699 3.47471 72.1699 3.47471C72.1699 3.47471 72.1699 3.44525 72.1699 3.4158V0.175602C72.1699 0.146146 72.1699 0.146145 72.1699 0.116689C72.1699 0.0872327 72.1994 0.0872332 72.2288 0.0872332C72.2583 0.0872332 72.2877 0.0577767 72.3172 0.0577767C72.3467 0.0577767 72.4056 0.0577767 72.4645 0.0577767C72.5823 0.0577767 72.6707 0.0577769 72.7001 0.0872332C72.7296 0.116689 72.759 0.146146 72.759 0.175602V2.06081C72.759 2.14918 72.759 2.23754 72.759 2.32591C72.759 2.41428 72.759 2.50265 72.7296 2.59102C72.7885 2.50265 72.8474 2.41428 72.9063 2.32591C72.9652 2.23754 73.0242 2.14918 73.0831 2.06081L74.4675 0.146145C74.4675 0.116689 74.497 0.116689 74.5264 0.0872332C74.5559 0.0872332 74.5559 0.0577767 74.5853 0.0577767C74.6148 0.0577767 74.6443 0.0577766 74.6737 0.0283203C74.7032 0.0283203 74.7326 0.0283203 74.7915 0.0283203C74.8504 0.0283203 74.8799 0.0283203 74.9094 0.0283203C74.9388 0.0283203 74.9683 0.0283204 74.9977 0.0577767C75.0272 0.0577767 75.0272 0.0872332 75.0272 0.0872332C75.0272 0.0872332 75.0272 0.116689 75.0272 0.146145V3.4158H75.0566Z" fill="black"/><path d="M78.4735 2.94613C78.4735 2.97559 78.4735 3.0345 78.4735 3.06395C78.4735 3.09341 78.4735 3.12287 78.4735 3.15232C78.4735 3.18178 78.4735 3.18178 78.4441 3.21124C78.4441 3.24069 78.4146 3.24069 78.3851 3.27015C78.3557 3.29961 78.2968 3.32906 78.2379 3.38797C78.179 3.44689 78.0906 3.47634 78.0022 3.5058C77.9139 3.53526 77.8255 3.56471 77.7077 3.59417C77.5898 3.62362 77.5015 3.62363 77.3836 3.62363C77.148 3.62363 76.9418 3.59417 76.7651 3.5058C76.5883 3.41743 76.441 3.32906 76.3232 3.18178C76.2054 3.0345 76.117 2.85776 76.0581 2.65157C75.9992 2.44537 75.9697 2.18027 75.9697 1.91516C75.9697 1.59114 75.9992 1.32603 76.0876 1.09038C76.1759 0.854731 76.2643 0.677994 76.4116 0.530712C76.5589 0.38343 76.7061 0.265605 76.8829 0.206692C77.0596 0.14778 77.2658 0.0888672 77.472 0.0888672C77.5604 0.0888672 77.6782 0.0888667 77.7666 0.118323C77.8549 0.147779 77.9433 0.177236 78.0317 0.206692C78.12 0.236149 78.179 0.265605 78.2379 0.324518C78.2968 0.353974 78.3557 0.412886 78.3851 0.442343C78.4146 0.471799 78.4441 0.501256 78.4441 0.501256C78.4441 0.530712 78.4735 0.530712 78.4735 0.560168C78.4735 0.589624 78.4735 0.619081 78.4735 0.648537C78.4735 0.677993 78.4735 0.70745 78.4735 0.766362C78.4735 0.854731 78.4735 0.913644 78.4441 0.972557C78.4146 1.00201 78.3851 1.03147 78.3557 1.03147C78.3262 1.03147 78.2673 1.00201 78.2379 0.972557C78.179 0.9431 78.12 0.884187 78.0611 0.854731C78.0022 0.795818 77.9138 0.766362 77.796 0.736906C77.7077 0.707449 77.5604 0.677994 77.4425 0.677994C77.148 0.677994 76.9418 0.795818 76.7945 1.00201C76.6472 1.20821 76.5589 1.53223 76.5589 1.94462C76.5589 2.15081 76.5883 2.32755 76.6178 2.50429C76.6472 2.65157 76.7061 2.79885 76.7945 2.88722C76.8829 3.00504 76.9712 3.06396 77.0891 3.12287C77.2069 3.18178 77.3247 3.21124 77.472 3.21124C77.6193 3.21124 77.7371 3.18178 77.8255 3.15232C77.9138 3.12287 78.0317 3.06395 78.0906 3.00504C78.179 2.94613 78.2379 2.91667 78.2673 2.85776C78.3262 2.8283 78.3557 2.79885 78.3851 2.79885C78.4146 2.79885 78.4146 2.79885 78.4146 2.79885C78.4146 2.79885 78.4441 2.8283 78.4441 2.85776C78.4441 2.88722 78.4441 2.91667 78.4735 2.94613C78.4735 2.88722 78.4735 2.85776 78.4735 2.94613Z" fill="black"/><path d="M80.9772 4.59568C80.9772 4.62514 80.9772 4.62514 80.9772 4.62514L80.9477 4.6546C80.9477 4.6546 80.8888 4.6546 80.8593 4.68405C80.8299 4.68405 80.8004 4.68405 80.7415 4.68405C80.6826 4.68405 80.6531 4.68405 80.6237 4.68405C80.5942 4.68405 80.5648 4.68405 80.5353 4.6546C80.5059 4.62514 80.5059 4.62514 80.5059 4.62514V4.59568V3.15232C80.5059 3.09341 80.5059 3.06395 80.5353 3.0345C80.5648 3.00504 80.5942 3.00504 80.6531 3.00504H80.8888C80.9772 2.88722 81.0655 2.76939 81.1244 2.62211C81.2128 2.47483 81.2717 2.29809 81.3306 2.0919C81.3895 1.8857 81.4485 1.6206 81.5074 1.32603C81.5663 1.03147 81.6252 0.677993 81.6547 0.265605C81.6547 0.236148 81.6547 0.206692 81.6841 0.177236C81.6841 0.14778 81.7136 0.118323 81.7136 0.118323C81.743 0.0888667 81.743 0.0888672 81.7725 0.0888672C81.8019 0.0888672 81.8314 0.0888672 81.8608 0.0888672H83.6577C83.7166 0.0888672 83.746 0.118323 83.805 0.147779C83.8344 0.177236 83.8639 0.236148 83.8639 0.295061V3.00504H84.3057C84.3646 3.00504 84.3941 3.00504 84.4235 3.0345C84.453 3.06395 84.453 3.09341 84.453 3.15232V4.59568C84.453 4.62514 84.453 4.62514 84.453 4.62514L84.4235 4.6546C84.3941 4.6546 84.3646 4.6546 84.3352 4.68405C84.3057 4.68405 84.2763 4.68405 84.2173 4.68405C84.1584 4.68405 84.129 4.68405 84.0995 4.68405C84.0701 4.68405 84.0406 4.68405 84.0112 4.6546C83.9817 4.6546 83.9817 4.62514 83.9817 4.62514V4.59568V3.5058H81.0655V4.59568H80.9772ZM83.1864 0.589624H82.1554C82.0965 0.972556 82.067 1.29658 82.0081 1.59114C81.9492 1.85625 81.8903 2.0919 81.8314 2.26863C81.7725 2.44537 81.7136 2.59265 81.6252 2.71048C81.5663 2.8283 81.4779 2.91667 81.419 3.00504H83.1864V0.589624Z" fill="black"/><path d="M87.6927 3.4163C87.6927 3.44575 87.6927 3.44575 87.6927 3.47521C87.6927 3.47521 87.6632 3.50466 87.6338 3.50466C87.6043 3.50466 87.5749 3.53412 87.5454 3.53412C87.5159 3.53412 87.457 3.53412 87.3981 3.53412C87.3392 3.53412 87.2803 3.53412 87.2508 3.53412C87.2214 3.53412 87.1919 3.53412 87.1625 3.50466C87.133 3.50466 87.133 3.47521 87.1036 3.47521C87.1036 3.47521 87.1036 3.44575 87.1036 3.4163V0.588489H86.2199C86.1904 0.971421 86.1315 1.29544 86.0726 1.61946C86.0137 1.91402 85.9548 2.17913 85.8958 2.38532C85.8369 2.59152 85.7486 2.79771 85.6602 2.94499C85.5718 3.09228 85.4835 3.2101 85.3951 3.29847C85.3067 3.38684 85.1889 3.44575 85.0711 3.50466C84.9532 3.53412 84.8354 3.56358 84.6881 3.56358C84.6587 3.56358 84.6587 3.56358 84.6292 3.56358C84.5998 3.56358 84.5998 3.53412 84.5998 3.53412C84.5998 3.53412 84.5703 3.47521 84.5703 3.44575C84.5703 3.4163 84.5703 3.35738 84.5703 3.29847C84.5703 3.23956 84.5703 3.18064 84.5703 3.15119C84.5703 3.12173 84.5703 3.09228 84.5998 3.06282C84.6292 3.03336 84.6292 3.03336 84.6292 3.03336C84.6292 3.03336 84.6587 3.03336 84.6881 3.03336C84.7765 3.03336 84.8354 3.00391 84.9238 2.97445C84.9827 2.94499 85.0711 2.88608 85.13 2.79771C85.1889 2.70934 85.2478 2.59152 85.3067 2.47369C85.3656 2.32641 85.4245 2.17913 85.454 1.97294C85.5129 1.76674 85.5424 1.53109 85.5718 1.26598C85.6013 1.00088 85.6602 0.676858 85.6896 0.323382C85.6896 0.264469 85.7191 0.205557 85.7486 0.1761C85.778 0.146644 85.8075 0.117188 85.8664 0.117188H87.5159C87.5749 0.117188 87.6043 0.146644 87.6632 0.1761C87.6927 0.205557 87.7221 0.264469 87.7221 0.323382V3.4163H87.6927Z" fill="black"/><path d="M91.1976 3.41743C91.1976 3.44689 91.1976 3.44689 91.1976 3.47634C91.1976 3.5058 91.1681 3.5058 91.1387 3.5058C91.1092 3.5058 91.0798 3.53526 91.0503 3.53526C91.0209 3.53526 90.962 3.53526 90.903 3.53526C90.8441 3.53526 90.7852 3.53526 90.7558 3.53526C90.7263 3.53526 90.6968 3.53526 90.6674 3.5058C90.6379 3.5058 90.6379 3.47634 90.6085 3.47634C90.579 3.47634 90.6085 3.44689 90.6085 3.41743V2.06244H90.255C90.1077 2.06244 89.9899 2.06244 89.9015 2.0919C89.8132 2.12135 89.7542 2.15081 89.6659 2.20972C89.607 2.26863 89.5481 2.32755 89.4891 2.41592C89.4302 2.50428 89.4008 2.62211 89.3419 2.73994L89.0767 3.35852C89.0767 3.38797 89.0473 3.41743 89.0473 3.44689C89.0473 3.47634 89.0178 3.47634 88.9884 3.5058C88.9589 3.5058 88.9295 3.53526 88.8706 3.53526C88.8411 3.53526 88.7822 3.53526 88.7233 3.53526C88.6644 3.53526 88.6349 3.53526 88.6055 3.53526C88.576 3.53526 88.5465 3.53526 88.5171 3.53526C88.4876 3.53526 88.4876 3.5058 88.4582 3.5058C88.4582 3.5058 88.4287 3.47634 88.4287 3.44689C88.4287 3.41743 88.4287 3.41743 88.4582 3.35852C88.4582 3.32906 88.4876 3.27015 88.5465 3.15232L88.8116 2.53374C88.8706 2.38646 88.9589 2.23918 89.0473 2.15081C89.1357 2.03298 89.2535 1.94462 89.3713 1.91516C89.1357 1.8857 88.9589 1.76788 88.8116 1.65005C88.6644 1.50277 88.6055 1.32603 88.6055 1.09038C88.6055 0.9431 88.6349 0.795819 88.6938 0.677994C88.7527 0.560168 88.8411 0.442343 88.9884 0.353974C89.1062 0.265605 89.2829 0.206692 89.4597 0.147779C89.6364 0.0888668 89.8426 0.0888672 90.0783 0.0888672C90.1372 0.0888672 90.1961 0.0888672 90.2845 0.0888672C90.3728 0.0888672 90.4317 0.0888672 90.5201 0.0888672C90.6085 0.0888672 90.6674 0.0888667 90.7558 0.118323C90.8441 0.118323 90.903 0.118323 90.962 0.147779C91.0209 0.147779 91.0798 0.177236 91.1092 0.236149C91.1387 0.295061 91.1681 0.324517 91.1681 0.412886V3.41743H91.1976ZM90.6085 0.530712C90.5201 0.530712 90.4317 0.501256 90.3434 0.501256C90.255 0.501256 90.1666 0.501256 90.0783 0.501256C89.9015 0.501256 89.7837 0.501256 89.6659 0.530712C89.548 0.560168 89.4597 0.589625 89.4008 0.648537C89.3419 0.70745 89.2829 0.766363 89.2535 0.825275C89.224 0.884188 89.224 0.972557 89.224 1.06093C89.224 1.14929 89.2535 1.23766 89.2829 1.29658C89.3124 1.35549 89.3713 1.4144 89.4302 1.47331C89.4891 1.53223 89.5775 1.56168 89.6953 1.59114C89.8132 1.6206 89.931 1.6206 90.1372 1.6206H90.6379V0.530712H90.6085Z" fill="black"/><path d="M96.2938 2.94613C96.2938 2.97559 96.2938 3.0345 96.2938 3.06395C96.2938 3.09341 96.2938 3.12287 96.2938 3.15232C96.2938 3.18178 96.2938 3.18178 96.2644 3.21124C96.2644 3.24069 96.2349 3.24069 96.2055 3.27015C96.176 3.29961 96.1171 3.32906 96.0582 3.38797C95.9993 3.44689 95.9109 3.47634 95.8225 3.5058C95.7342 3.53526 95.6458 3.56471 95.528 3.59417C95.4101 3.62362 95.3218 3.62363 95.2039 3.62363C94.9683 3.62363 94.7621 3.59417 94.5854 3.5058C94.4086 3.41743 94.2613 3.32906 94.1435 3.18178C94.0257 3.0345 93.9373 2.85776 93.8784 2.65157C93.8195 2.44537 93.79 2.18027 93.79 1.91516C93.79 1.59114 93.8195 1.32603 93.9079 1.09038C93.9962 0.854731 94.0846 0.677994 94.2319 0.530712C94.3792 0.38343 94.5264 0.265605 94.7032 0.206692C94.8799 0.14778 95.0861 0.0888672 95.2923 0.0888672C95.3807 0.0888672 95.4985 0.0888667 95.5869 0.118323C95.6752 0.147779 95.7636 0.177236 95.852 0.206692C95.9404 0.236149 95.9993 0.265605 96.0582 0.324518C96.1171 0.353974 96.176 0.412886 96.2055 0.442343C96.2349 0.471799 96.2644 0.501256 96.2644 0.501256C96.2644 0.530712 96.2938 0.530712 96.2938 0.560168C96.2938 0.589624 96.2938 0.619081 96.2938 0.648537C96.2938 0.677993 96.2938 0.70745 96.2938 0.766362C96.2938 0.854731 96.2938 0.913644 96.2644 0.972557C96.2349 1.00201 96.2055 1.03147 96.176 1.03147C96.1465 1.03147 96.0876 1.00201 96.0582 0.972557C95.9993 0.9431 95.9404 0.884187 95.8814 0.854731C95.8225 0.795818 95.7342 0.766362 95.6163 0.736906C95.528 0.707449 95.3807 0.677994 95.2629 0.677994C94.9683 0.677994 94.7621 0.795818 94.6148 1.00201C94.4675 1.20821 94.3792 1.53223 94.3792 1.94462C94.3792 2.15081 94.4086 2.32755 94.4381 2.50429C94.4675 2.65157 94.5265 2.79885 94.6148 2.88722C94.7032 3.00504 94.7916 3.06396 94.9094 3.12287C95.0272 3.18178 95.145 3.21124 95.2923 3.21124C95.4396 3.21124 95.5574 3.18178 95.6458 3.15232C95.7342 3.12287 95.852 3.06395 95.9109 3.00504C95.9993 2.94613 96.0582 2.91667 96.0876 2.85776C96.1465 2.8283 96.176 2.79885 96.2055 2.79885C96.2349 2.79885 96.2349 2.79885 96.2349 2.79885C96.2349 2.79885 96.2644 2.8283 96.2644 2.85776C96.2644 2.88722 96.2644 2.91667 96.2938 2.94613C96.2938 2.88722 96.2644 2.85776 96.2938 2.94613Z" fill="black"/><path d="M99.3275 0.351204C99.3275 0.410116 99.3275 0.439573 99.3275 0.469029C99.3275 0.498485 99.3275 0.527941 99.298 0.557398C99.298 0.586854 99.2686 0.586854 99.2686 0.61631C99.2686 0.61631 99.2391 0.645767 99.2097 0.645767H98.2376V3.44412C98.2376 3.47357 98.2376 3.47357 98.2376 3.50303C98.2376 3.50303 98.2081 3.53249 98.1787 3.53249C98.1492 3.53249 98.1198 3.56194 98.0903 3.56194C98.0609 3.56194 98.0019 3.56194 97.943 3.56194C97.8841 3.56194 97.8252 3.56194 97.7958 3.56194C97.7663 3.56194 97.7368 3.56194 97.7074 3.53249C97.6779 3.50303 97.6779 3.50303 97.6485 3.50303C97.6485 3.50303 97.6485 3.47357 97.6485 3.44412V0.645767H96.6764C96.647 0.645767 96.647 0.645767 96.6175 0.61631C96.588 0.61631 96.588 0.586854 96.588 0.557398C96.588 0.527941 96.5586 0.498485 96.5586 0.469029C96.5586 0.439573 96.5586 0.38066 96.5586 0.351204C96.5586 0.321747 96.5586 0.262835 96.5586 0.233379C96.5586 0.203922 96.5586 0.174466 96.588 0.145009C96.588 0.115553 96.6175 0.115553 96.6175 0.0860971C96.6175 0.0860971 96.647 0.0566406 96.6764 0.0566406H99.2097C99.2391 0.0566406 99.2391 0.0566407 99.2686 0.0860971C99.298 0.0860971 99.298 0.115553 99.298 0.145009C99.298 0.174466 99.3275 0.203922 99.3275 0.233379C99.3275 0.292291 99.3275 0.321747 99.3275 0.351204Z" fill="black"/><path d="M101.39 3.50466L100.948 4.68292C100.948 4.71237 100.889 4.74183 100.83 4.77129C100.772 4.80074 100.683 4.80074 100.565 4.80074C100.506 4.80074 100.447 4.80074 100.418 4.80074C100.389 4.80074 100.359 4.77129 100.33 4.77129C100.3 4.77129 100.3 4.74183 100.3 4.71237C100.3 4.68292 100.3 4.65346 100.33 4.624L100.772 3.50466C100.742 3.50466 100.742 3.47521 100.713 3.44575C100.683 3.41629 100.683 3.38684 100.683 3.38684L99.5343 0.323382C99.5049 0.264469 99.5049 0.235013 99.5049 0.205557C99.5049 0.1761 99.5049 0.146644 99.5343 0.146644C99.5638 0.117188 99.5932 0.117188 99.6227 0.117188C99.6522 0.117188 99.7111 0.117188 99.7994 0.117188C99.8878 0.117188 99.9173 0.117188 99.9762 0.117188C100.006 0.117188 100.035 0.117188 100.065 0.146644C100.094 0.146644 100.094 0.1761 100.123 0.1761C100.123 0.205557 100.153 0.205556 100.153 0.264469L101.066 2.85662L101.95 0.235013C101.95 0.176101 101.979 0.146644 102.009 0.146644C102.038 0.146644 102.068 0.117188 102.097 0.117188C102.126 0.117188 102.185 0.117188 102.274 0.117188C102.333 0.117188 102.392 0.117188 102.451 0.117188C102.48 0.117188 102.539 0.146644 102.539 0.146644C102.568 0.1761 102.568 0.1761 102.568 0.205557C102.568 0.235013 102.568 0.264469 102.539 0.323382L101.39 3.50466Z" fill="black"/><path d="M103.01 4.59568C103.01 4.62514 103.01 4.62514 103.01 4.62514L102.981 4.6546C102.981 4.6546 102.922 4.6546 102.893 4.68405C102.863 4.68405 102.834 4.68405 102.775 4.68405C102.716 4.68405 102.686 4.68405 102.657 4.68405C102.627 4.68405 102.598 4.68405 102.569 4.6546C102.539 4.62514 102.539 4.62514 102.539 4.62514V4.59568V3.15232C102.539 3.09341 102.539 3.06395 102.569 3.0345C102.598 3.00504 102.627 3.00504 102.686 3.00504H102.922C103.01 2.88722 103.099 2.76939 103.158 2.62211C103.246 2.47483 103.305 2.29809 103.364 2.0919C103.423 1.8857 103.482 1.6206 103.541 1.32603C103.599 1.03147 103.658 0.677993 103.688 0.265605C103.688 0.236148 103.688 0.206692 103.717 0.177236C103.717 0.14778 103.747 0.118323 103.747 0.118323C103.776 0.0888667 103.776 0.0888672 103.806 0.0888672C103.835 0.0888672 103.865 0.0888672 103.894 0.0888672H105.691C105.75 0.0888672 105.779 0.118323 105.838 0.147779C105.868 0.177236 105.897 0.236148 105.897 0.295061V3.00504H106.339C106.398 3.00504 106.427 3.00504 106.457 3.0345C106.486 3.06395 106.486 3.09341 106.486 3.15232V4.59568C106.486 4.62514 106.486 4.62514 106.486 4.62514L106.457 4.6546C106.427 4.6546 106.398 4.6546 106.368 4.68405C106.339 4.68405 106.309 4.68405 106.251 4.68405C106.192 4.68405 106.162 4.68405 106.133 4.68405C106.103 4.68405 106.074 4.68405 106.044 4.6546C106.015 4.6546 106.015 4.62514 106.015 4.62514V4.59568V3.5058H103.099V4.59568H103.01ZM105.249 0.589624H104.218C104.159 0.972556 104.13 1.29658 104.071 1.59114C104.012 1.85625 103.953 2.0919 103.894 2.26863C103.835 2.44537 103.776 2.59265 103.688 2.71048C103.629 2.8283 103.541 2.91667 103.482 3.00504H105.249V0.589624Z" fill="black"/><path d="M109.785 1.67674C109.785 1.76511 109.756 1.82402 109.727 1.88293C109.668 1.91239 109.638 1.94184 109.579 1.94184H107.458C107.458 2.11858 107.488 2.29532 107.517 2.41315C107.547 2.56043 107.606 2.67825 107.694 2.79608C107.782 2.9139 107.9 2.97282 108.018 3.03173C108.165 3.09064 108.313 3.1201 108.519 3.1201C108.666 3.1201 108.813 3.1201 108.931 3.09064C109.049 3.06119 109.167 3.03173 109.255 3.00227C109.344 2.97282 109.403 2.94336 109.461 2.9139C109.52 2.88445 109.55 2.88445 109.579 2.88445C109.609 2.88445 109.609 2.88445 109.638 2.88445L109.668 2.9139C109.668 2.94336 109.668 2.94336 109.697 2.97282C109.697 3.00227 109.697 3.03173 109.697 3.09064C109.697 3.1201 109.697 3.14955 109.697 3.17901C109.697 3.20847 109.697 3.20847 109.697 3.23792C109.697 3.26738 109.697 3.26738 109.668 3.29683C109.638 3.32629 109.638 3.32629 109.638 3.32629C109.638 3.32629 109.579 3.35575 109.52 3.3852C109.461 3.41466 109.373 3.44412 109.255 3.47357C109.137 3.50303 109.02 3.53249 108.902 3.56194C108.755 3.5914 108.607 3.5914 108.46 3.5914C108.195 3.5914 107.959 3.56194 107.753 3.47357C107.547 3.3852 107.37 3.29683 107.252 3.14955C107.105 3.00227 107.017 2.82553 106.958 2.58988C106.899 2.38369 106.84 2.11858 106.84 1.82402C106.84 1.55891 106.869 1.29381 106.958 1.08761C107.017 0.851961 107.134 0.675223 107.282 0.527942C107.429 0.38066 107.576 0.262835 107.782 0.174466C107.989 0.0860968 108.195 0.0566406 108.43 0.0566406C108.696 0.0566406 108.902 0.0860968 109.079 0.174466C109.255 0.262835 109.403 0.351204 109.52 0.498485C109.638 0.645767 109.727 0.793049 109.785 0.969786C109.844 1.14652 109.874 1.35272 109.874 1.55891V1.67674H109.785ZM109.167 1.5C109.167 1.17598 109.108 0.94033 108.961 0.763592C108.813 0.586854 108.607 0.498485 108.313 0.498485C108.165 0.498485 108.048 0.527941 107.93 0.586854C107.812 0.645767 107.724 0.70468 107.665 0.793049C107.576 0.881417 107.517 0.999243 107.488 1.11707C107.458 1.23489 107.429 1.35272 107.429 1.5H109.167Z" fill="black"/><path d="M113.526 3.41466C113.526 3.44412 113.526 3.44412 113.526 3.47357C113.526 3.47357 113.497 3.50303 113.467 3.50303C113.438 3.50303 113.408 3.53249 113.379 3.53249C113.349 3.53249 113.29 3.53249 113.231 3.53249C113.173 3.53249 113.114 3.53249 113.084 3.53249C113.055 3.53249 113.025 3.53249 112.996 3.50303C112.966 3.47357 112.966 3.47357 112.937 3.47357C112.937 3.47357 112.937 3.44412 112.937 3.41466V2.00076H111.287V3.41466C111.287 3.44412 111.287 3.44412 111.287 3.47357C111.287 3.47357 111.258 3.50303 111.228 3.50303C111.199 3.50303 111.17 3.53249 111.14 3.53249C111.111 3.53249 111.052 3.53249 110.993 3.53249C110.934 3.53249 110.875 3.53249 110.846 3.53249C110.816 3.53249 110.787 3.53249 110.757 3.50303C110.728 3.50303 110.728 3.47357 110.698 3.47357C110.698 3.47357 110.698 3.44412 110.698 3.41466V0.174466C110.698 0.145009 110.698 0.145009 110.698 0.115553C110.698 0.115553 110.728 0.0860971 110.757 0.0860971C110.787 0.0860971 110.816 0.0566406 110.846 0.0566406C110.875 0.0566406 110.934 0.0566406 110.993 0.0566406C111.052 0.0566406 111.111 0.0566406 111.14 0.0566406C111.17 0.0566406 111.199 0.0566407 111.228 0.0860971C111.258 0.0860971 111.258 0.115553 111.287 0.115553C111.287 0.115553 111.287 0.145009 111.287 0.174466V1.5H112.937V0.174466C112.937 0.145009 112.937 0.145009 112.937 0.115553C112.937 0.115553 112.966 0.0860971 112.996 0.0860971C113.025 0.0860971 113.055 0.0566406 113.084 0.0566406C113.114 0.0566406 113.173 0.0566406 113.231 0.0566406C113.29 0.0566406 113.349 0.0566406 113.379 0.0566406C113.408 0.0566406 113.438 0.0566407 113.467 0.0860971C113.497 0.0860971 113.497 0.115553 113.526 0.115553C113.526 0.115553 113.526 0.145009 113.526 0.174466V3.41466Z" fill="black"/><path d="M116.883 0.351204C116.883 0.410116 116.883 0.439573 116.883 0.469029C116.883 0.498485 116.883 0.527941 116.854 0.557398C116.854 0.586854 116.824 0.586854 116.824 0.61631C116.824 0.61631 116.795 0.645767 116.765 0.645767H115.793V3.44412C115.793 3.47357 115.793 3.47357 115.793 3.50303C115.793 3.50303 115.764 3.53249 115.734 3.53249C115.705 3.53249 115.675 3.56194 115.646 3.56194C115.617 3.56194 115.558 3.56194 115.499 3.56194C115.44 3.56194 115.381 3.56194 115.351 3.56194C115.322 3.56194 115.293 3.56194 115.263 3.53249C115.234 3.50303 115.234 3.50303 115.204 3.50303C115.204 3.50303 115.204 3.47357 115.204 3.44412V0.645767H114.232C114.203 0.645767 114.203 0.645767 114.173 0.61631C114.144 0.61631 114.144 0.586854 114.144 0.557398C114.144 0.527941 114.114 0.498485 114.114 0.469029C114.114 0.439573 114.114 0.38066 114.114 0.351204C114.114 0.321747 114.114 0.262835 114.114 0.233379C114.114 0.203922 114.114 0.174466 114.144 0.145009C114.144 0.115553 114.173 0.115553 114.173 0.0860971C114.173 0.0860971 114.203 0.0566406 114.232 0.0566406H116.765C116.795 0.0566406 116.795 0.0566407 116.824 0.0860971C116.854 0.0860971 116.854 0.115553 116.854 0.145009C116.854 0.174466 116.883 0.203922 116.883 0.233379C116.883 0.292291 116.883 0.321747 116.883 0.351204Z" fill="black"/><path d="M120.389 1.76738C120.389 2.03249 120.359 2.26814 120.271 2.50379C120.212 2.73944 120.094 2.91618 119.947 3.06346C119.8 3.21074 119.623 3.35802 119.417 3.44639C119.211 3.53476 118.975 3.59367 118.71 3.59367C118.445 3.59367 118.209 3.56421 118.003 3.47585C117.797 3.38748 117.649 3.26965 117.502 3.12237C117.384 2.97509 117.266 2.79835 117.208 2.5627C117.149 2.35651 117.119 2.0914 117.119 1.82629C117.119 1.56119 117.149 1.32553 117.208 1.08988C117.266 0.854233 117.384 0.677496 117.502 0.530214C117.649 0.382932 117.826 0.235651 118.032 0.147282C118.238 0.0589126 118.474 0 118.769 0C119.034 0 119.269 0.0294562 119.476 0.117825C119.682 0.206194 119.829 0.32402 119.976 0.471301C120.124 0.618583 120.212 0.795321 120.271 1.03097C120.33 1.26662 120.389 1.50227 120.389 1.76738ZM119.77 1.82629C119.77 1.64955 119.741 1.47282 119.711 1.32553C119.682 1.17825 119.623 1.03097 119.564 0.913146C119.476 0.795321 119.387 0.706952 119.269 0.648039C119.152 0.589127 118.975 0.55967 118.798 0.55967C118.621 0.55967 118.474 0.589127 118.356 0.648039C118.238 0.706952 118.121 0.795321 118.032 0.913146C117.944 1.03097 117.885 1.1488 117.856 1.32553C117.826 1.47282 117.797 1.64955 117.797 1.82629C117.797 2.00303 117.826 2.17977 117.856 2.32705C117.885 2.47433 117.944 2.62161 118.032 2.73944C118.121 2.85726 118.209 2.94563 118.327 3.00454C118.445 3.06346 118.621 3.09291 118.798 3.09291C118.975 3.09291 119.122 3.06346 119.24 3.00454C119.358 2.94563 119.476 2.85726 119.564 2.73944C119.652 2.62161 119.711 2.50379 119.741 2.32705C119.741 2.17977 119.77 2.00303 119.77 1.82629Z" fill="black"/><path d="M123.924 2.50265C123.924 2.67939 123.895 2.82667 123.836 2.9445C123.777 3.09178 123.689 3.18015 123.541 3.26852C123.424 3.35688 123.247 3.4158 123.07 3.47471C122.893 3.53362 122.658 3.53362 122.422 3.53362C122.334 3.53362 122.275 3.53362 122.186 3.53362C122.098 3.53362 122.039 3.53362 121.98 3.53362C121.921 3.53362 121.833 3.53362 121.774 3.53362C121.715 3.53362 121.627 3.53362 121.568 3.50417C121.479 3.50417 121.391 3.47471 121.362 3.4158C121.303 3.35688 121.303 3.29797 121.303 3.18015V0.381796C121.303 0.293427 121.332 0.205058 121.362 0.146145C121.421 0.0872328 121.479 0.0577767 121.568 0.0577767C121.627 0.0577767 121.686 0.0577766 121.774 0.0283203C121.833 0.0283203 121.921 0.0283203 121.98 0.0283203C122.069 0.0283203 122.128 0.0283203 122.216 0.0283203C122.304 0.0283203 122.363 0.0283203 122.452 0.0283203C122.687 0.0283203 122.893 0.0577769 123.07 0.0872332C123.247 0.116689 123.394 0.175602 123.483 0.263971C123.6 0.35234 123.689 0.440709 123.718 0.529078C123.777 0.646903 123.807 0.764728 123.807 0.91201C123.807 1.08875 123.748 1.23603 123.659 1.38331C123.571 1.50114 123.424 1.61896 123.217 1.64842C123.453 1.70733 123.63 1.7957 123.748 1.94298C123.865 2.09026 123.924 2.267 123.924 2.50265ZM123.217 1.00038C123.217 0.91201 123.217 0.853097 123.188 0.794185C123.158 0.735272 123.1 0.676359 123.041 0.646903C122.982 0.617447 122.893 0.558534 122.776 0.558534C122.658 0.529077 122.54 0.529078 122.393 0.529078C122.275 0.529078 122.186 0.529078 122.098 0.529078C122.01 0.529078 121.921 0.529077 121.862 0.558534V1.56005H122.481C122.717 1.56005 122.923 1.50114 123.041 1.41277C123.129 1.29494 123.217 1.17712 123.217 1.00038ZM123.306 2.50265C123.306 2.41428 123.276 2.32591 123.247 2.23754C123.217 2.17863 123.158 2.09026 123.1 2.06081C123.041 2.00189 122.923 1.97244 122.805 1.94298C122.687 1.91352 122.569 1.91352 122.393 1.91352H121.803V3.06232C121.862 3.06232 121.892 3.06232 121.951 3.09178C122.01 3.09178 122.039 3.09178 122.098 3.09178C122.157 3.09178 122.186 3.09178 122.245 3.09178C122.304 3.09178 122.334 3.09178 122.393 3.09178C122.54 3.09178 122.687 3.09178 122.805 3.06232C122.923 3.03286 123.011 3.00341 123.07 2.9445C123.129 2.88558 123.188 2.82667 123.217 2.7383C123.306 2.67939 123.306 2.59102 123.306 2.50265Z" fill="black"/><path fill-rule="evenodd" clip-rule="evenodd" d="M27.6021 25.9501C27.013 25.8323 26.6006 25.5671 26.306 24.7718C28.2207 23.8881 30.0764 22.327 30.5477 20.2061C29.9586 20.0588 29.2517 20.0883 28.9571 19.5286C27.5137 17.0248 27.013 13.6373 25.8936 10.839C25.3634 10.7506 24.5092 11.0157 24.2736 10.6328C24.1263 11.3692 24.0968 12.2234 23.7728 12.7536C23.3899 12.6064 22.9186 12.518 22.4767 12.4591C22.4767 11.9583 22.4767 11.4576 22.4767 10.9568C21.6814 10.9568 20.8566 10.9568 20.0613 10.9568C20.1202 14.0497 19.6489 17.4667 20.1497 20.1177C15.7607 21.1487 18.1761 14.1086 17.8226 10.9568C17.0568 10.9568 16.2909 10.9568 15.4956 10.9568C15.3777 11.5754 15.3188 12.2529 15.0832 12.7831C14.7002 12.6064 14.0817 12.6653 13.7576 12.3707C13.7871 11.6049 13.6693 10.6622 13.846 10.0437C16.2909 8.51194 21.5047 8.68868 24.1263 9.9553C24.8921 9.2778 26.0998 8.8065 27.337 8.92433C28.2207 9.80802 28.6625 11.8994 29.2222 13.5784C29.6641 15.2869 30.2532 16.9364 30.8423 18.5271C31.1074 17.3783 31.5493 15.1691 32.0206 13.0188C32.4624 10.9568 32.8748 9.18943 33.6407 8.95378C34.436 9.0127 34.8778 9.21889 35.1429 9.7491C33.2283 15.228 33.2872 22.6804 28.8982 25.685C28.4563 25.9206 28.0145 26.0384 27.6021 25.9501Z" fill="black"/><path fill-rule="evenodd" clip-rule="evenodd" d="M46.277 18.1739C46.8661 18.2033 47.8971 18.2622 48.3095 18.439C48.4273 20.0591 47.8087 22.5629 47.5731 23.4465C46.9545 23.3287 46.5716 23.3876 46.1592 23.152C46.1592 22.0032 46.1592 20.9428 46.1592 19.8234C43.9794 20.3831 40.3857 20.2947 38.1765 19.9412C38.1765 20.8839 37.9998 22.2094 37.5874 23.5055C37.0866 23.3582 36.5564 23.3582 36.0557 23.1814C36.0557 21.5613 36.0557 19.9412 36.0557 18.3506C39.0602 17.8793 38.854 13.9616 39.2959 10.9571C38.8835 10.9276 38.3238 10.9571 37.8525 10.9276C37.6758 10.6625 37.7641 10.1323 37.5579 9.9261C39.4137 8.86567 43.8321 8.48274 45.4228 10.0145C46.3654 11.7524 45.9824 15.4344 46.277 18.1739ZM41.2105 10.8392C40.916 13.4314 40.9454 16.5243 39.7082 18.1739C41.1516 18.1739 42.595 18.1739 44.0383 18.1739C43.9205 15.8763 44.0678 13.343 43.7438 11.0454C42.9484 10.9276 42.1531 10.8098 41.2105 10.8392Z" fill="black"/><path fill-rule="evenodd" clip-rule="evenodd" d="M8.75033 2.97461C4.50862 2.97461 -0.440041 6.24426 0.0312601 12.489C0.502561 18.5275 5.77524 20.6779 9.39837 20.1182C12.1967 19.6763 13.2571 18.0268 13.2571 18.0268C13.2571 18.0268 12.992 17.3787 12.7564 16.9958C9.57511 18.8516 3.83113 18.4981 2.80015 12.9308C1.79864 7.59925 5.86361 4.24123 10.8417 5.21329C10.8417 6.03807 10.8417 6.92176 10.8417 6.92176L12.344 7.21632C12.344 7.21632 12.668 5.89078 12.8448 4.50634C12.1967 3.79939 10.989 2.97461 8.75033 2.97461Z" fill="black"/><path fill-rule="evenodd" clip-rule="evenodd" d="M58.2656 17.4971C56.6455 18.3808 52.3449 19.1761 51.6968 15.1701C51.0194 10.9578 55.1727 10.2803 57.0284 11.0462C57.0284 11.7237 57.0284 12.5485 57.0284 12.5485C57.0284 12.5485 57.9416 12.6958 58.5602 12.6368C58.678 11.9004 59.002 10.6044 58.9431 10.0447C55.4673 7.59981 48.9869 9.33773 49.4287 15.2879C49.8706 21.2381 56.7633 21.1203 58.9431 18.5281C58.6485 18.0568 58.4129 17.7033 58.2656 17.4971Z" fill="url(#paint0_linear_768_25)"/><path fill-rule="evenodd" clip-rule="evenodd" d="M62.6248 16.0829C63.3907 16.0535 66.7193 15.7884 68.6339 14.7279C70.8137 13.5202 70.3719 10.8397 69.282 10.0149C66.0418 7.42276 59.6792 9.60252 60.0327 15.2287C60.3862 21.1199 67.3673 21.061 69.5471 18.4689C69.2525 18.027 69.0169 17.6736 68.8401 17.4674C67.3673 18.2627 63.6558 19.1464 62.6248 16.0829ZM66.9549 11.2226C67.8386 11.635 67.8975 12.1947 67.927 12.3714C67.9564 12.5482 67.8092 12.99 67.4262 13.2551C66.5131 13.9031 64.8046 14.3744 62.3892 14.4923C62.3597 11.3994 65.5705 10.5746 66.9549 11.2226Z" fill="url(#paint1_linear_768_25)"/><path fill-rule="evenodd" clip-rule="evenodd" d="M93.0534 13.873C93.6719 14.197 94.1727 14.5799 94.5262 15.1102C94.9091 15.6404 95.3215 16.6713 94.5262 18.1442C93.7603 19.3519 92.4642 20.0294 90.6968 20.2061C89.0178 20.3239 87.3094 20.4123 86.2489 19.7348C85.218 18.0558 85.9838 13.7552 85.9249 11.0746C85.2769 11.0746 84.7172 11.0746 84.2754 11.0746C84.2754 10.839 84.187 10.3382 84.0986 10.0731C87.545 8.77705 95.351 7.65771 94.2022 12.6064C94.0549 13.0482 93.7308 13.5784 93.0534 13.873ZM88.0752 13.6668C88.9884 13.4606 90.3728 13.4606 91.4038 13.5784C93.1712 11.3103 90.7558 10.3382 88.1636 11.0452C88.1047 11.9878 88.1047 12.6947 88.0752 13.6668ZM88.0163 15.0512C87.9869 16.0528 87.9574 16.9659 87.928 17.9085C89.8132 18.2031 92.9355 18.2031 92.4937 16.2C92.0224 14.8156 89.7837 14.8745 88.0163 15.0512Z" fill="url(#paint2_linear_768_25)"/><path fill-rule="evenodd" clip-rule="evenodd" d="M100.241 9.66137C100.27 11.959 100.064 14.5806 100.005 17.0255C100.447 16.2301 101.625 14.1387 102.774 12.2535C103.717 10.6923 104.659 9.21953 105.366 8.92496C105.838 8.8366 106.692 9.1017 107.045 9.33735C107.369 10.4272 106.692 15.4348 106.839 18.3215C107.251 18.3215 107.929 18.3215 108.548 18.3215C108.548 18.7045 108.695 19.0579 108.754 19.4409C107.664 19.9711 106.044 20.7369 104.748 20.0005C104.512 17.644 104.895 14.5806 104.954 12.0473C103.304 14.7868 101.92 17.8208 99.9169 20.2067C99.0921 20.4424 98.2968 20.1773 97.9138 19.706C97.5309 17.0255 98.0611 13.962 98.0022 11.0458C97.3836 11.0458 96.7945 11.0458 96.1759 11.0458C96.1465 10.8102 96.0581 10.3389 95.9697 10.0443C96.7356 9.66137 98.0022 8.92496 99.1215 8.89551C99.5045 8.89551 100.241 9.01333 100.241 9.66137Z" fill="url(#paint3_linear_768_25)"/><path d="M117.562 23.2091C112.966 23.2091 109.255 19.4681 109.255 14.9024C109.255 10.3072 112.996 6.5957 117.562 6.5957C122.157 6.5957 125.868 10.3367 125.868 14.9024C125.868 19.4681 122.127 23.2091 117.562 23.2091ZM117.562 7.24374C113.349 7.24374 109.903 10.6901 109.903 14.9024C109.903 19.1146 113.32 22.561 117.562 22.561C121.774 22.561 125.22 19.1441 125.22 14.9024C125.191 10.6607 121.774 7.24374 117.562 7.24374Z" fill="url(#paint4_linear_768_25)"/><path fill-rule="evenodd" clip-rule="evenodd" d="M77.2659 9.04422C76.4411 9.22096 75.8225 9.54498 75.3512 10.0457C74.7916 7.86597 71.8459 9.42715 70.9033 10.0457C70.9917 10.3108 71.0801 10.6349 71.1095 11.0472C71.7281 11.0472 72.5823 11.0472 72.9063 11.0472C72.9063 11.4007 72.435 24.5382 72.435 24.5382L72.4056 25.1568C72.3761 25.5103 72.7591 26.1878 73.8195 25.9521C74.8799 25.746 76.6473 25.039 76.7357 24.9506C76.5884 24.4793 76.5295 23.8313 76.5295 23.8313C76.5295 23.8313 75.5574 23.8313 74.7326 23.8313L74.8799 19.5601C75.9993 20.326 78.179 20.326 79.6224 19.8252C84.0998 18.264 83.9819 7.65977 77.2659 9.04422ZM78.6798 17.7927C77.7077 18.2346 76.2938 18.264 74.9683 17.9695C74.9683 17.9106 74.9388 17.8517 74.9388 17.8222L75.145 11.4596C76.5589 10.7527 78.8565 10.7821 79.5929 12.0782C80.6534 13.6099 80.3883 17.0269 78.6798 17.7927Z" fill="url(#paint5_linear_768_25)"/><path fill-rule="evenodd" clip-rule="evenodd" d="M121.008 17.4971C119.388 18.3808 115.087 19.1761 114.439 15.1701C113.761 10.9578 117.915 10.2803 119.8 11.0462C119.8 11.7237 119.8 12.5485 119.8 12.5485C119.8 12.5485 120.713 12.6958 121.332 12.6368C121.449 11.9004 121.774 10.6044 121.715 10.0447C118.239 7.59981 111.758 9.33773 112.2 15.2879C112.642 21.2381 119.535 21.1203 121.715 18.5281C121.42 18.0568 121.184 17.7033 121.008 17.4971Z" fill="url(#paint6_linear_768_25)"/><defs><linearGradient id="paint0_linear_768_25" x1="54.1951" y1="8.33183" x2="54.1951" y2="26.9321" gradientUnits="userSpaceOnUse"><stop stop-color="#008BD2"/><stop offset="1" stop-color="#004F9F"/></linearGradient><linearGradient id="paint1_linear_768_25" x1="65.0816" y1="8.33131" x2="65.0816" y2="26.9322" gradientUnits="userSpaceOnUse"><stop stop-color="#008BD2"/><stop offset="1" stop-color="#004F9F"/></linearGradient><linearGradient id="paint2_linear_768_25" x1="89.539" y1="8.37556" x2="89.539" y2="26.9063" gradientUnits="userSpaceOnUse"><stop stop-color="#008BD2"/><stop offset="1" stop-color="#004F9F"/></linearGradient><linearGradient id="paint3_linear_768_25" x1="102.326" y1="8.21009" x2="102.326" y2="27.0137" gradientUnits="userSpaceOnUse"><stop stop-color="#008BD2"/><stop offset="1" stop-color="#004F9F"/></linearGradient><linearGradient id="paint4_linear_768_25" x1="117.554" y1="8.32933" x2="117.554" y2="26.9298" gradientUnits="userSpaceOnUse"><stop stop-color="#008BD2"/><stop offset="1" stop-color="#004F9F"/></linearGradient><linearGradient id="paint5_linear_768_25" x1="76.8082" y1="8.3342" x2="76.8082" y2="26.9333" gradientUnits="userSpaceOnUse"><stop stop-color="#008BD2"/><stop offset="1" stop-color="#004F9F"/></linearGradient><linearGradient id="paint6_linear_768_25" x1="116.957" y1="8.33183" x2="116.957" y2="26.9321" gradientUnits="userSpaceOnUse"><stop stop-color="#008BD2"/><stop offset="1" stop-color="#004F9F"/></linearGradient></defs></svg>